<svg width="174" height="69" viewBox="0 0 174 69" fill="none" xmlns="http://www.w3.org/2000/svg">
<path d="M66.5918 12.759H70.7681L76.62 29H72.4695L71.361 25.5198H65.8958L64.7873 29H60.6883L66.5918 12.759ZM66.7465 22.6841H70.4587L69.84 20.7248C69.6338 20.0889 69.4189 19.4101 69.1955 18.6883C68.9893 17.9665 68.8088 17.3048 68.6542 16.7033H68.6026C68.4307 17.3048 68.2331 17.9579 68.0097 18.6625C67.7863 19.3671 67.5714 20.0546 67.3652 20.7248L66.7465 22.6841ZM86.2751 10.5678H90.0905V29H87.461L87.0743 27.6595H86.9454C86.7048 28.0376 86.2837 28.4071 85.6822 28.768C85.0979 29.1117 84.3245 29.2836 83.3621 29.2836C82.5543 29.2836 81.8067 29.1375 81.1193 28.8453C80.4318 28.536 79.8389 28.1063 79.3405 27.5564C78.8421 26.9892 78.4468 26.3104 78.1546 25.5198C77.8797 24.712 77.7422 23.8098 77.7422 22.813C77.7422 21.8333 77.8711 20.9483 78.1289 20.1577C78.3867 19.3499 78.7562 18.6711 79.2374 18.1211C79.7358 17.554 80.3459 17.1157 81.0677 16.8064C81.7895 16.497 82.6059 16.3424 83.5167 16.3424C84.0839 16.3424 84.6167 16.4283 85.1151 16.6001C85.6306 16.7548 86.0173 16.9525 86.2751 17.1931V10.5678ZM86.2751 19.9772C86.1204 19.771 85.8798 19.5734 85.5533 19.3843C85.2268 19.1953 84.8659 19.1007 84.4706 19.1007C84.0753 19.1007 83.7058 19.1695 83.3621 19.307C83.0183 19.4273 82.709 19.6335 82.434 19.9257C82.1762 20.2178 81.97 20.5959 81.8153 21.06C81.6606 21.5068 81.5833 22.0654 81.5833 22.7356C81.5833 24.0246 81.8325 24.9784 82.3309 25.5971C82.8465 26.1986 83.5081 26.4994 84.3159 26.4994C84.8143 26.4994 85.2268 26.3705 85.5533 26.1127C85.897 25.8549 86.1376 25.5799 86.2751 25.2878V19.9772ZM100.822 16.6259H104.869L100.538 29H96.0008L91.8761 16.6259H95.9492L97.4444 22.0396L98.2951 26.3447H98.3983L99.249 22.0396L100.822 16.6259ZM106.563 17.7087C107.268 17.2962 108.058 16.9697 108.935 16.729C109.828 16.4713 110.739 16.3424 111.667 16.3424C113.197 16.3424 114.426 16.7119 115.354 17.4509C116.282 18.1899 116.746 19.3671 116.746 20.9826V29H113.833L113.498 27.7626H113.395C113.051 28.2094 112.57 28.5789 111.951 28.8711C111.349 29.1461 110.636 29.2836 109.811 29.2836C109.107 29.2836 108.488 29.1805 107.955 28.9742C107.44 28.768 107.01 28.493 106.666 28.1493C106.322 27.8056 106.056 27.4017 105.867 26.9377C105.695 26.4564 105.609 25.9494 105.609 25.4167C105.609 24.6949 105.764 24.0762 106.073 23.5606C106.4 23.045 106.829 22.6239 107.362 22.2974C107.912 21.9708 108.548 21.7302 109.27 21.5756C110.009 21.4209 110.791 21.3435 111.616 21.3435H112.905V20.6733C112.905 20.2093 112.741 19.8569 112.415 19.6163C112.088 19.3585 111.624 19.2296 111.023 19.2296C110.507 19.2296 110 19.307 109.502 19.4617C109.003 19.6163 108.454 19.8655 107.852 20.2093L106.563 17.7087ZM112.931 23.6637L112.08 23.6895C111.599 23.7066 111.195 23.7582 110.868 23.8441C110.542 23.9301 110.275 24.0418 110.069 24.1793C109.88 24.2996 109.742 24.4542 109.657 24.6433C109.571 24.8152 109.528 24.9956 109.528 25.1847C109.528 25.7174 109.682 26.0869 109.992 26.2932C110.318 26.4822 110.688 26.5767 111.1 26.5767C111.513 26.5767 111.882 26.4564 112.209 26.2158C112.552 25.9752 112.793 25.7088 112.931 25.4167V23.6637ZM123.338 29H119.523V16.6259H122.487L122.926 18.1727C123.476 17.6055 124.094 17.1587 124.782 16.8322C125.469 16.5056 126.217 16.3424 127.025 16.3424C128.417 16.3424 129.482 16.7205 130.221 17.4766C130.96 18.2328 131.33 19.3413 131.33 20.8022V29H127.514V21.1889C127.514 20.5873 127.368 20.1147 127.076 19.771C126.801 19.4101 126.389 19.2296 125.839 19.2296C125.426 19.2296 124.988 19.3499 124.524 19.5905C124.077 19.8312 123.682 20.1491 123.338 20.5444V29ZM141.003 26.4994C141.553 26.4994 142.034 26.4307 142.446 26.2932C142.876 26.1385 143.202 26.001 143.426 25.8807L144.122 28.4586C143.83 28.6305 143.34 28.811 142.652 29C141.965 29.189 141.209 29.2836 140.384 29.2836C139.421 29.2836 138.528 29.1461 137.703 28.8711C136.895 28.5961 136.19 28.1922 135.589 27.6595C135.005 27.1095 134.541 26.4393 134.197 25.6487C133.853 24.8409 133.681 23.9129 133.681 22.8645C133.681 21.9021 133.845 21.0256 134.171 20.235C134.498 19.4273 134.962 18.7398 135.563 18.1727C136.165 17.5884 136.878 17.1415 137.703 16.8322C138.528 16.5056 139.447 16.3424 140.461 16.3424C140.994 16.3424 141.57 16.4025 142.188 16.5228C142.824 16.6431 143.469 16.8751 144.122 17.2189L143.323 19.8226C142.979 19.6163 142.592 19.4445 142.163 19.307C141.75 19.1695 141.329 19.1007 140.899 19.1007C139.903 19.1007 139.095 19.4101 138.476 20.0288C137.858 20.6303 137.548 21.5412 137.548 22.7614C137.548 23.4489 137.651 24.0332 137.858 24.5144C138.064 24.9784 138.33 25.3651 138.657 25.6745C138.983 25.9666 139.353 26.1815 139.765 26.319C140.178 26.4393 140.59 26.4994 141.003 26.4994ZM156.867 23.9215H148.876V24.0246C148.876 24.8839 149.211 25.5112 149.881 25.9065C150.551 26.3018 151.394 26.4994 152.408 26.4994C153.112 26.4994 153.731 26.4307 154.264 26.2932C154.796 26.1557 155.243 25.9924 155.604 25.8034L156.3 28.4329C155.836 28.6563 155.243 28.8539 154.521 29.0258C153.817 29.1976 152.949 29.2836 151.918 29.2836C150.99 29.2836 150.105 29.1633 149.262 28.9227C148.438 28.6649 147.707 28.2782 147.071 27.7626C146.453 27.247 145.954 26.5939 145.576 25.8034C145.215 25.0128 145.035 24.0676 145.035 22.9676C145.035 21.988 145.181 21.0943 145.473 20.2866C145.782 19.4617 146.212 18.757 146.762 18.1727C147.312 17.5884 147.965 17.1415 148.721 16.8322C149.494 16.5056 150.345 16.3424 151.273 16.3424C152.975 16.3424 154.332 16.8579 155.346 17.8891C156.36 18.9203 156.867 20.3897 156.867 22.2974V23.9215ZM152.975 21.3178C152.975 21.0256 152.94 20.742 152.872 20.467C152.803 20.1921 152.691 19.9515 152.536 19.7452C152.399 19.5218 152.21 19.3499 151.969 19.2296C151.746 19.0921 151.471 19.0234 151.144 19.0234C150.543 19.0234 150.044 19.2382 149.649 19.6679C149.254 20.0804 149.022 20.6475 148.953 21.3693L152.975 21.3178ZM167.238 10.5678H171.054V29H168.424L168.037 27.6595H167.909C167.668 28.0376 167.247 28.4071 166.645 28.768C166.061 29.1117 165.288 29.2836 164.325 29.2836C163.517 29.2836 162.77 29.1375 162.082 28.8453C161.395 28.536 160.802 28.1063 160.304 27.5564C159.805 26.9892 159.41 26.3104 159.118 25.5198C158.843 24.712 158.705 23.8098 158.705 22.813C158.705 21.8333 158.834 20.9483 159.092 20.1577C159.35 19.3499 159.719 18.6711 160.201 18.1211C160.699 17.554 161.309 17.1157 162.031 16.8064C162.753 16.497 163.569 16.3424 164.48 16.3424C165.047 16.3424 165.58 16.4283 166.078 16.6001C166.594 16.7548 166.98 16.9525 167.238 17.1931V10.5678ZM167.238 19.9772C167.084 19.771 166.843 19.5734 166.516 19.3843C166.19 19.1953 165.829 19.1007 165.434 19.1007C165.038 19.1007 164.669 19.1695 164.325 19.307C163.981 19.4273 163.672 19.6335 163.397 19.9257C163.139 20.2178 162.933 20.5959 162.778 21.06C162.624 21.5068 162.546 22.0654 162.546 22.7356C162.546 24.0246 162.796 24.9784 163.294 25.5971C163.81 26.1986 164.471 26.4994 165.279 26.4994C165.777 26.4994 166.19 26.3705 166.516 26.1127C166.86 25.8549 167.101 25.5799 167.238 25.2878V19.9772Z" fill="black"/>
<path d="M68.9454 42.6631H70.8789L66.4964 54.7793H64.795L60.3609 42.6631H62.2944L65.0785 51.1187L65.6199 53.2841H65.6972L66.2128 51.1445L68.9454 42.6631ZM73.2911 54.7793V42.6631H75.0956V54.7793H73.2911ZM74.1933 39.5438C73.8496 39.5438 73.5574 39.4321 73.3168 39.2086C73.0934 38.9852 72.9817 38.693 72.9817 38.3321C72.9817 37.9712 73.0934 37.6791 73.3168 37.4556C73.5574 37.215 73.8496 37.0947 74.1933 37.0947C74.5027 37.0947 74.7777 37.2064 75.0183 37.4299C75.2761 37.6533 75.405 37.954 75.405 38.3321C75.405 38.7102 75.2847 39.011 75.044 39.2344C74.8034 39.4406 74.5199 39.5438 74.1933 39.5438ZM85.3151 44.0294H81.4997V51.5311C81.4997 52.2358 81.663 52.7084 81.9896 52.949C82.3333 53.1896 82.7801 53.3099 83.3301 53.3099C83.7597 53.3099 84.1808 53.267 84.5933 53.181C85.0057 53.0951 85.3666 53.0006 85.676 52.8974L85.9596 54.2638C85.6158 54.4012 85.1862 54.5215 84.6706 54.6247C84.155 54.7278 83.5965 54.7793 82.9949 54.7793C80.7951 54.7793 79.6952 53.7739 79.6952 51.7632V44.0294H77.7102V42.6631H79.6952V38.7962H81.4997V42.6631H85.3151V44.0294ZM88.2882 43.7458C89.0959 43.3161 89.8349 43.0068 90.5052 42.8177C91.1926 42.6115 91.9488 42.5084 92.7738 42.5084C93.3925 42.5084 93.9596 42.5857 94.4752 42.7404C95.008 42.8779 95.4634 43.1185 95.8415 43.4622C96.2368 43.8059 96.5375 44.2614 96.7438 44.8285C96.9672 45.3785 97.0789 46.0659 97.0789 46.8909V54.7793H95.6868L95.4033 53.3099H95.3517C94.8361 53.9114 94.2432 54.3497 93.5729 54.6247C92.9199 54.8825 92.198 55.0114 91.4075 55.0114C90.8403 55.0114 90.3075 54.934 89.8091 54.7793C89.3279 54.6075 88.9069 54.3669 88.546 54.0575C88.2022 53.7482 87.9273 53.3787 87.721 52.949C87.532 52.5194 87.4374 52.0381 87.4374 51.5054C87.4374 50.8695 87.5663 50.3109 87.8241 49.8297C88.0819 49.3485 88.4428 48.9446 88.9069 48.6181C89.3881 48.2915 89.9552 48.0509 90.6083 47.8963C91.2786 47.7244 92.0176 47.6385 92.8253 47.6385H95.2744V46.7362C95.2744 45.705 95.0338 44.9918 94.5525 44.5965C94.0713 44.184 93.4354 43.9778 92.6449 43.9778C92.1637 43.9778 91.6137 44.0551 90.995 44.2098C90.3935 44.3473 89.7232 44.6223 88.9842 45.0348L88.2882 43.7458ZM95.2744 48.9532L93.2636 48.979C91.8371 49.0134 90.8231 49.2626 90.2216 49.7266C89.6201 50.1906 89.3193 50.7578 89.3193 51.428C89.3193 52.2358 89.5685 52.8029 90.0669 53.1295C90.5653 53.456 91.1583 53.6193 91.8457 53.6193C92.4472 53.6193 93.0573 53.4818 93.676 53.2068C94.2947 52.9146 94.8275 52.442 95.2744 51.7889V48.9532ZM100.679 54.7793V36.476H102.457V54.7793H100.679ZM106.497 54.7793V42.6631H108.302V54.7793H106.497ZM107.399 39.5438C107.056 39.5438 106.763 39.4321 106.523 39.2086C106.299 38.9852 106.188 38.693 106.188 38.3321C106.188 37.9712 106.299 37.6791 106.523 37.4556C106.763 37.215 107.056 37.0947 107.399 37.0947C107.709 37.0947 107.984 37.2064 108.224 37.4299C108.482 37.6533 108.611 37.954 108.611 38.3321C108.611 38.7102 108.491 39.011 108.25 39.2344C108.009 39.4406 107.726 39.5438 107.399 39.5438ZM118.521 44.0294H114.706V51.5311C114.706 52.2358 114.869 52.7084 115.196 52.949C115.539 53.1896 115.986 53.3099 116.536 53.3099C116.966 53.3099 117.387 53.267 117.799 53.181C118.212 53.0951 118.573 53.0006 118.882 52.8974L119.166 54.2638C118.822 54.4012 118.392 54.5215 117.877 54.6247C117.361 54.7278 116.802 54.7793 116.201 54.7793C114.001 54.7793 112.901 53.7739 112.901 51.7632V44.0294H110.916V42.6631H112.901V38.7962H114.706V42.6631H118.521V44.0294ZM120.225 42.6631H122.133L124.994 50.1648L125.896 52.9748H125.948L126.799 50.1648L129.377 42.6631H131.181L126.515 55.8105C126.017 57.2026 125.389 58.2939 124.633 59.0845C123.894 59.8922 123 60.4938 121.952 60.889L121.205 59.497C122.047 59.1532 122.777 58.6806 123.396 58.0791C124.014 57.4776 124.513 56.6097 124.891 55.4754L125.123 54.7793L120.225 42.6631Z" fill="black"/>
<path d="M45.6538 47.4018V20.8732L22.8269 7.60897L11.3988 14.2411L34.255 27.5054L22.8269 34.1375L0 20.8732V47.4018L22.8269 60.6661L34.255 54.034L11.3988 40.7697L22.8269 34.1375L45.6538 47.4018Z" fill="#C53030"/>
</svg>
